<?xml version="1.0" encoding="utf-8"?>
<!-- Generator: Adobe Illustrator 19.1.0, SVG Export Plug-In . SVG Version: 6.00 Build 0)  -->
<svg version="1.1" id="Layer_1" xmlns="http://www.w3.org/2000/svg" xmlns:xlink="http://www.w3.org/1999/xlink" x="0px" y="0px"
	 viewBox="0 0 360 144" style="enable-background:new 0 0 360 144;" xml:space="preserve">
<style type="text/css">
	.st0{fill:#B71C8D;}
</style>
<g>
	<path class="st0" d="M146.5,55H136l-15.8,16.6V55h-4.1c-1.2,0-2.2,0.4-3,1.2c-0.8,0.8-1.2,1.8-1.2,3v36.3h8.4V81.3
		c0-1.4,0.8-2.4,2.3-2.9c1.5-0.5,3.2,0.4,5,2.8l10.3,14.4h10.1l-17.7-24.2L146.5,55z"/>
	<path class="st0" d="M166.9,64.4c-2.6-0.9-5.5-1.2-8.7-0.8c-3.2,0.4-5.9,1.8-7.9,4.2c-1.3,1.4-2.2,3.2-2.8,5.3
		c-0.6,2.1-0.9,4.2-0.9,6.4c0,2.6,0.4,5.1,1.1,7.5c0.7,2.4,1.9,4.3,3.5,5.7c1.6,1.4,3.7,2.4,6.3,3c2.6,0.6,5.2,0.5,7.8-0.2
		c2.9-0.6,5.3-2.2,7.2-4.8c0.9-1.3,1.6-2.8,2.1-4.6c0.5-1.8,0.8-4,0.8-6.5c0-3.5-0.7-6.5-2-9.1C172.1,67.6,169.9,65.6,166.9,64.4z
		 M165.9,86.6c-0.9,1.4-2,2.3-3.2,2.7c-1.2,0.4-2.4,0.3-3.6-0.1c-1.2-0.4-2-1-2.5-1.6c-1.2-1.4-1.8-3.9-2-7.5
		c-0.2-3.6,0.6-6.3,2.2-8.1c0.5-0.5,1.4-1,2.6-1.4c1.2-0.4,2.4-0.3,3.5,0.1c1.2,0.4,2.2,1.3,3.1,2.7c0.9,1.4,1.4,3.5,1.4,6.4
		C167.4,82.9,166.9,85.2,165.9,86.6z"/>
	<path class="st0" d="M220.2,66.2c-2.9-1.8-6.1-2.7-9.6-2.7c-1.7,0.1-3.4,0.3-5,0.8c-1.6,0.4-3,1.2-4.2,2.2c-1.4-1.2-3-2-4.7-2.4
		c-1.7-0.4-3.5-0.6-5.3-0.6c-3.4,0.2-6.5,1.1-9.3,2.9c-2.8,1.8-4.2,5.4-4.2,10.7v18.4h8.3V75.5c0-1.9,0.5-3.3,1.7-4.1
		c1.1-0.9,2.4-1.3,3.8-1.3c1.4,0,2.7,0.4,3.8,1.3c1.1,0.9,1.7,2.2,1.7,4.1v1.7v18.4h8.1V77.2v-1.7c0-1.9,0.6-3.3,1.7-4.1
		c1.1-0.9,2.4-1.3,3.8-1.3s2.7,0.4,3.8,1.3c1.1,0.9,1.7,2.2,1.7,4.1v16c0,1.2,0.4,2.1,1.1,2.9c0.7,0.7,1.7,1.1,2.9,1.1h4.1V77.2
		C224.6,71.7,223.1,68,220.2,66.2z"/>
	<path class="st0" d="M241.5,63.5c-4.5,0-8,1.5-10.5,4.4c-2.4,2.8-3.7,6.8-3.7,11.8c0,5.3,1.3,9.3,3.8,12.2c2.5,2.9,6,4.4,10.5,4.4
		c3.7,0,6.8-0.9,9.2-2.7c2.4-1.7,4.1-4.2,5-7.6h-5.9c-0.9,0-1.7,0.2-2.2,0.6c-0.5,0.4-0.8,0.7-0.9,0.9c-0.2,0.2-0.5,0.5-0.6,0.6
		c-0.2,0.2-0.4,0.3-0.6,0.4c-0.9,0.6-2.1,0.8-3.4,0.8c-2,0-3.6-0.6-4.6-1.9c-1.1-1.2-1.7-3-1.8-5.4h20.4c0.1-0.2,0.1-0.4,0.1-0.8
		c0-0.1,0-0.2,0-0.5c0-0.2,0-0.5,0-0.8c0-5.2-1.3-9.2-3.8-12.2C249.9,64.9,246.2,63.5,241.5,63.5z M235.7,76.7
		c0.1-2,0.7-3.6,1.8-4.7c1.1-1.1,2.5-1.7,4.2-1.7c1.9,0,3.3,0.6,4.4,1.7c0.9,1,1.5,2.6,1.7,4.7H235.7z"/>
	<path class="st0" d="M273.4,63.5c-4.5,0-8,1.5-10.5,4.4c-2.4,2.8-3.7,6.8-3.7,11.8c0,5.3,1.3,9.3,3.8,12.2c2.5,2.9,6,4.4,10.5,4.4
		c3.7,0,6.8-0.9,9.2-2.7c2.4-1.7,4.1-4.2,5-7.6h-5.9c-0.9,0-1.7,0.2-2.2,0.6c-0.5,0.4-0.8,0.7-0.9,0.9c-0.2,0.2-0.5,0.5-0.6,0.6
		c-0.2,0.2-0.4,0.3-0.6,0.4c-0.9,0.6-2.1,0.8-3.4,0.8c-2,0-3.6-0.6-4.6-1.9c-1.1-1.2-1.7-3-1.8-5.4H288c0.1-0.2,0.1-0.4,0.1-0.8
		c0-0.1,0-0.2,0-0.5c0-0.2,0-0.5,0-0.8c0-5.2-1.3-9.2-3.8-12.2C281.8,64.9,278.1,63.5,273.4,63.5z M267.6,76.7
		c0.1-2,0.7-3.6,1.8-4.7c1.1-1.1,2.5-1.7,4.2-1.7c1.9,0,3.3,0.6,4.4,1.7c0.9,1,1.5,2.6,1.7,4.7H267.6z"/>
	<path class="st0" d="M316.6,54.9h-4v13.5c-0.9-1.5-2.2-2.7-3.8-3.7c-1.5-0.8-3.2-1.2-5.2-1.2c-3.7,0-6.7,1.5-9.1,4.6
		c-2.3,3-3.4,7-3.4,11.9c0,5,1.1,9,3.4,11.9c1.2,1.5,2.8,2.6,4.7,3.2c2,0.7,4,1,6,1c3.8,0,7.3-1,10.5-2.9c3.2-2,4.8-5.7,4.8-11.3
		v-23c0-1-0.4-1.9-1.2-2.8C318.7,55.3,317.7,54.9,316.6,54.9z M311,86.8c-1.2,1.7-2.8,2.5-5,2.5c-2.2,0-3.9-0.8-5.1-2.5
		c-1.2-1.7-1.8-4.1-1.8-7.2c0-2.8,0.6-5,1.8-6.6c1.2-1.7,2.8-2.5,4.8-2.5c2.1,0,3.8,0.8,5.1,2.4c1.2,1.7,1.8,3.9,1.8,6.7
		C312.6,82.8,312.1,85.2,311,86.8z"/>
	<path class="st0" d="M346.9,65.7c-2.2-1.5-5.5-2.2-9.9-2.2c-3.9,0-7,0.9-9.1,2.7c-1.9,1.6-3,3.6-3.3,6h7.9c0.4-0.9,1-1.5,1.9-1.8
		c0.9-0.3,1.8-0.5,3-0.5c1,0,2.1,0.2,3.4,0.5c1.2,0.4,1.8,1.1,1.8,2.3c0,1.6-1.7,2.6-5.2,3.1c-0.7,0.1-1.3,0.2-1.9,0.3
		c-0.6,0.1-1,0.2-1.4,0.2c-3,0.5-5.4,1.4-7.4,2.8c-1.9,1.4-2.9,3.8-2.9,7.1c0,3.5,1.1,6.1,3.2,7.6c2.1,1.5,4.6,2.3,7.4,2.3
		c1.4,0,3-0.1,4.9-0.3c1.8-0.2,3.6-0.7,5.2-1.6c1.6-0.8,2.9-2.1,4.1-3.8c1.1-1.8,1.7-4.2,1.7-7.4V72.3
		C350.3,69.5,349.2,67.3,346.9,65.7z M342.7,82.7c0,2.2-0.6,3.9-1.9,5.2c-1.3,1.3-3,1.9-5.2,1.9c-1.3,0-2.4-0.3-3.1-0.9
		c-0.7-0.7-1.1-1.7-1.1-2.8c0-0.9,0.3-1.7,0.8-2.6c0.6-0.6,1.7-1.1,3.1-1.5l2.7-0.6c2-0.5,3.5-1,4.6-1.5V82.7z"/>
	<path class="st0" d="M61,87.5h0.7v-3.2c-0.2,0-0.5,0.1-0.7,0.1V87.5z"/>
	<path class="st0" d="M52.9,87.5h0.7v-3.1c-0.2,0-0.5-0.1-0.7-0.1V87.5z"/>
	<path class="st0" d="M41.4,82.5l0.5,0.5l2.3-2.3c-0.2-0.1-0.4-0.3-0.6-0.4L41.4,82.5z"/>
	<path class="st0" d="M70.4,80.7l2.3,2.3l0.5-0.5L71,80.3C70.8,80.5,70.6,80.6,70.4,80.7z"/>
	<path class="st0" d="M53.6,35.3h-0.7v3.2c0.2,0,0.5-0.1,0.7-0.1V35.3z"/>
	<path class="st0" d="M35.7,76.8l0.5,0.5l2.2-2.2c-0.1-0.2-0.3-0.4-0.4-0.6L35.7,76.8z"/>
	<path class="st0" d="M31.2,65.1v0.7h3.2c0-0.2-0.1-0.5-0.1-0.7H31.2z"/>
	<path class="st0" d="M61.7,35.3H61v3.1c0.2,0,0.5,0.1,0.7,0.1V35.3z"/>
	<path class="st0" d="M44.2,42.1l-2.3-2.3l-0.5,0.5l2.2,2.2C43.8,42.4,44,42.2,44.2,42.1z"/>
	<path class="st0" d="M38.4,47.7l-2.2-2.2L35.7,46l2.3,2.3C38.1,48.1,38.2,47.9,38.4,47.7z"/>
	<path class="st0" d="M57.3,14c-24,0-43.4,19.4-43.4,43.4c0,0.2,0,0.4,0,0.7c0,0.1,0,0.2,0,0.3c0,31.4,39.5,71.4,39.5,71.4
		c2,1.5,3.9,1.2,3.9,1.2s1.8,0.2,3.9-1.2c0,0,39.5-40,39.5-71.4c0-0.1,0-0.2,0-0.3c0-0.2,0-0.4,0-0.7C100.7,33.4,81.3,14,57.3,14z
		 M26,61.7c0,0-1.6,3.4-5.4,3.4c0,0,0,0,0,0c0,0,0,0-0.1,0c-2,0-3.6-1.6-3.7-3.6c0,0,0-0.2,0-0.2c0.1-2,1.7-3.6,3.7-3.6
		c0,0,0,0,0.1,0c0,0,0,0,0,0c3.9,0,5.4,3.4,5.4,3.4c0,0,0,0.2,0,0.3C26.1,61.6,26,61.7,26,61.7z M80.7,32.8
		C80.7,32.8,80.7,32.8,80.7,32.8C80.7,32.8,80.7,32.8,80.7,32.8c1.5-1.5,3.8-1.5,5.2-0.1c0,0,0.1,0.1,0.1,0.1
		c1.4,1.5,1.4,3.7-0.1,5.2c0,0,0,0,0,0c0,0,0,0,0,0c-2.8,2.8-6.2,1.5-6.2,1.5c0,0-0.2-0.1-0.3-0.2c-0.1-0.1-0.2-0.2-0.2-0.3
		C79.2,39.1,77.9,35.6,80.7,32.8z M53.6,24.6c0-2,1.6-3.6,3.6-3.7c0,0,0.2,0,0.2,0c2,0.1,3.6,1.7,3.6,3.7c0,0,0,0,0,0.1c0,0,0,0,0,0
		c0,3.9-3.4,5.4-3.4,5.4c0,0-0.2,0-0.3,0c-0.1,0-0.3,0-0.3,0C57,30.1,53.6,28.6,53.6,24.6C53.6,24.7,53.6,24.7,53.6,24.6
		C53.6,24.6,53.6,24.6,53.6,24.6z M28.6,32.8c0,0,0.1-0.1,0.1-0.1c1.5-1.4,3.7-1.4,5.2,0.1c0,0,0,0,0,0c0,0,0,0,0,0
		c2.8,2.8,1.5,6.2,1.5,6.2c0,0-0.1,0.2-0.2,0.3c-0.1,0.1-0.2,0.2-0.3,0.2c0,0-3.5,1.3-6.2-1.5c0,0,0,0,0,0c0,0,0,0,0,0
		C27.2,36.6,27.2,34.3,28.6,32.8z M33.9,90C33.9,90,33.9,90,33.9,90C33.9,90,33.9,90,33.9,90c-1.5,1.5-3.8,1.5-5.2,0.1
		c0,0-0.1-0.1-0.1-0.1c-1.4-1.5-1.4-3.7,0.1-5.2c0,0,0,0,0,0c0,0,0,0,0,0c2.8-2.8,6.2-1.5,6.2-1.5c0,0,0.2,0.1,0.3,0.2
		c0.1,0.1,0.2,0.2,0.2,0.3C35.4,83.8,36.7,87.2,33.9,90z M61,98.2c0,2-1.6,3.6-3.6,3.7c0,0-0.2,0-0.2,0c-2-0.1-3.6-1.7-3.6-3.7
		c0,0,0,0,0-0.1c0,0,0,0,0,0c0-3.9,3.4-5.4,3.4-5.4c0,0,0.2,0,0.3,0c0.1,0,0.3,0,0.3,0C57.6,92.7,61,94.2,61,98.2
		C61,98.2,61,98.2,61,98.2C61,98.2,61,98.2,61,98.2z M86,90c0,0-0.1,0.1-0.1,0.1c-1.5,1.4-3.7,1.4-5.2-0.1c0,0,0,0,0,0c0,0,0,0,0,0
		c-2.8-2.8-1.5-6.2-1.5-6.2c0,0,0.1-0.2,0.2-0.3c0.1-0.1,0.2-0.2,0.3-0.2c0,0,3.5-1.3,6.2,1.5c0,0,0,0,0,0c0,0,0,0,0,0
		C87.4,86.2,87.4,88.5,86,90z M87.9,64.9c0,2.1-1.7,3.8-3.8,3.8h-4.6c-0.4,1.2-0.8,2.3-1.4,3.3l3.3,3.3c1.5,1.5,1.5,3.9,0,5.3
		l-4.9,4.9c-1.5,1.5-3.9,1.5-5.3,0l-3.3-3.3c-1.1,0.5-2.2,1-3.3,1.4v4.6c0,2.1-1.7,3.8-3.8,3.8h-6.9c-2.1,0-3.8-1.7-3.8-3.8v-4.6
		c-1.2-0.4-2.3-0.8-3.3-1.4l-3.3,3.3c-1.5,1.5-3.9,1.5-5.3,0l-4.9-4.9c-1.5-1.5-1.5-3.9,0-5.3l3.3-3.3c-0.5-1.1-1-2.2-1.4-3.3h-4.6
		c-2.1,0-3.8-1.7-3.8-3.8v-6.9c0-2.1,1.7-3.8,3.8-3.8h4.6c0.4-1.2,0.8-2.3,1.4-3.3l-3.3-3.3c-1.5-1.5-1.5-3.9,0-5.3l4.9-4.9
		c1.5-1.5,3.9-1.5,5.3,0l3.3,3.3c1.1-0.5,2.2-1,3.3-1.4v-4.6c0-2.1,1.7-3.8,3.8-3.8h6.9c2.1,0,3.8,1.7,3.8,3.8v4.6
		c1.2,0.4,2.3,0.8,3.3,1.4l3.3-3.3c1.5-1.5,3.9-1.5,5.3,0l4.9,4.9c1.5,1.5,1.5,3.9,0,5.3l-3.3,3.3c0.5,1.1,1,2.2,1.4,3.3h4.6
		c2.1,0,3.8,1.7,3.8,3.8V64.9z M97.8,61.5c-0.1,2-1.7,3.6-3.7,3.6c0,0,0,0-0.1,0c0,0,0,0,0,0c-3.9,0-5.4-3.4-5.4-3.4
		c0,0,0-0.2,0-0.3c0-0.1,0-0.3,0-0.3c0,0,1.6-3.4,5.4-3.4c0,0,0,0,0,0c0,0,0,0,0.1,0c2,0,3.6,1.6,3.7,3.6
		C97.8,61.3,97.8,61.5,97.8,61.5z"/>
	<path class="st0" d="M80.2,65.8h3.2v-0.7h-3.1C80.3,65.3,80.3,65.6,80.2,65.8z"/>
	<path class="st0" d="M80.4,57.7h3.1V57h-3.2C80.3,57.2,80.3,57.5,80.4,57.7z"/>
	<path class="st0" d="M31.2,57.7h3.1c0-0.2,0.1-0.5,0.1-0.7h-3.2V57.7z"/>
	<path class="st0" d="M76.2,75.1l2.2,2.2l0.5-0.5l-2.3-2.3C76.5,74.7,76.3,74.9,76.2,75.1z"/>
	<path class="st0" d="M57.3,41c-11.2,0-20.4,9.1-20.4,20.4s9.1,20.4,20.4,20.4c11.2,0,20.4-9.1,20.4-20.4S68.5,41,57.3,41z
		 M54.1,58.8c0,1.4-1.7,2.7-2,3c-0.2,0.2-0.3,0.7-0.3,1l0.8,17.5c-1.1-0.3-2.2-0.6-3.2-1.1L50.3,63c0-0.3,0-1-0.3-1.2
		c-0.3-0.3-2-1.6-2-3c0-1.4,0.3-6.9,0.6-7.7c0.3-0.8,0.9-2.5,2.5-2.5c1.9,0.1,2.3,1.7,2.5,2.5C53.8,51.9,54.2,57.5,54.1,58.8z
		 M61.1,59.1c-0.1,1-1.5,2.3-1.8,2.5c-0.2,0.1-0.3,0.4-0.3,0.6l1,18.5c-0.9,0.1-1.8,0.2-2.8,0.2c-0.3,0-0.5,0-0.8,0l0.9-18.6
		c0-0.2-0.1-0.5-0.3-0.7c-0.3-0.2-1.7-1.4-1.8-2.5c-0.1-1,0.4-12,1.3-13c0,0-0.4,11.3,0.6,11.3c1,0,0-9.4,1-10.7v0
		c0.7,1.4,0,10.7,1,10.7c1,0,0.6-11.3,0.6-11.3C60.8,47.1,61.3,58.1,61.1,59.1z M63.8,79.7c0.2-3.6,0.7-14.1,0.7-14.2
		c0-0.2-0.3-0.6-0.8-0.9c-0.4-0.3-1.6-1.5-1.5-3.8c0.1-2.3,1.4-8.1,3.8-14.6l0.6,32.4C65.7,79,64.8,79.4,63.8,79.7z"/>
	<path class="st0" d="M78.4,45.5l-2.2,2.2c0.1,0.2,0.3,0.4,0.4,0.6l2.3-2.3L78.4,45.5z"/>
	<path class="st0" d="M73.2,40.3l-0.5-0.5l-2.3,2.3c0.2,0.1,0.4,0.3,0.6,0.4L73.2,40.3z"/>
</g>
</svg>
